<svg xmlns="http://www.w3.org/2000/svg" width="1374.667" height="1166.667" version="1.0" viewBox="0 0 1031 875"><path d="M431.5 100.6c-81.5 2.2-139.1 4.6-192.5 7.9-13.5.8-31.9 2-41 2.5-26 1.6-36.7 2.9-42.6 5.1-6.1 2.3-14 8.2-17.7 13.1-3.3 4.5-18.7 44.9-18.7 49 .1 8.7 7.3 16.7 19.2 21.3 27.6 10.7 60.9 24 63.8 25.5 6.5 3.4 11 10.4 11 17.2 0 3.1-19.4 94.6-20.2 95.2-.1.2-17.7 1-39 1.9-42.1 1.8-44.1 2.1-53.3 8.5-5.5 3.8-5.5 6-.3 9.6 13.3 9.2 42.4 32.1 48.9 38.6 11.7 11.5 19.9 29.2 19.9 43 0 11.9-8 29.5-18.3 40.1-5.9 6.1-32.8 27.5-47.9 38.3-4.1 2.9-6.8 5.5-6.8 6.6 0 3.2 12.7 10.2 20.6 11.4 2.1.3 19.7 1 38.9 1.6 19.3.6 36.4 1.3 38.1 1.6l3.1.4 4.6 21.8c2.6 11.9 5.6 26 6.7 31.2 9.1 42 9.1 42 5.9 48.7-3.7 7.7-2.3 7-55.3 27.8-26.9 10.6-31.2 13.1-34.7 21-3.2 6.9-3.2 6.7 12.1 46.3 4.8 12.5 13.9 20.7 26.8 24.1 7.9 2.2 57.2 5.5 149.7 10.1 134.8 6.7 289.2 5.8 459.5-2.5 68-3.4 116.8-7 121.6-9 9.6-4 16.5-11.5 19-20.6 1.9-7.5 1.9-47.7-.1-68-3.4-34.7-14-85.1-20.6-98.1-3.3-6.6-6.5-7.4-42.4-11.3-79.8-8.7-153.1-13.7-252-17.3l-20-.8 38.5-.7c21.2-.3 81.5-1.1 134-1.7 133.8-1.4 158.1-2 158.7-3.7.3-.7-.9-3.5-2.7-6.2-12.5-19.6-19.4-51.8-19.3-91.6 0-40 6.2-70.1 18.9-91.1 5.6-9.3 7.2-9-40.3-9.8-39.7-.6-130.5-1.8-262.3-3.3-38.2-.4-65.4-.9-60.5-1 108.5-2.8 215.3-9.4 296-18.2 27.8-3 37.4-4.3 40.7-5.2 6.3-1.7 9.4-5.1 12.2-13.7C903.5 259 911 209.1 911 166c0-24.9-1-31.5-5.5-38-4.9-7-13.6-12.3-22-13.4-28.2-3.5-160.8-10.1-252-12.6-37.3-1-177.8-2-200-1.4z"/></svg>